<svg width="998" height="998" viewBox="0 0 998 998" fill="none" xmlns="http://www.w3.org/2000/svg">
<path d="M929.682 498.659C929.682 732.201 736.715 921.54 498.659 921.54C260.602 921.54 67.6356 732.201 67.6356 498.659C67.6356 265.117 260.602 75.7775 498.659 75.7775C736.715 75.7775 929.682 265.117 929.682 498.659Z" fill="#4F4F4F" stroke="#4F4F4F"/>
<circle cx="498.659" cy="498.659" r="422.881" fill="white" stroke="#4F4F4F"/>
<circle cx="498.659" cy="498.659" r="406.597" fill="#828282" stroke="#828282"/>
<path d="M897.114 498.659C897.114 723.226 718.71 905.256 498.659 905.256C278.607 905.256 100.203 723.226 100.203 498.659C100.203 274.092 278.607 92.0614 498.659 92.0614C718.71 92.0614 897.114 274.092 897.114 498.659Z" fill="white" stroke="#828282"/>
<line x1="1.2929" y1="623.073" x2="623.073" y2="1.29285" stroke="#4F4F4F" stroke-width="2"/>
<line x1="76.1368" y1="697.917" x2="697.917" y2="76.1368" stroke="#4F4F4F" stroke-width="2"/>
<line x1="150.981" y1="772.761" x2="772.761" y2="150.981" stroke="#4F4F4F" stroke-width="2"/>
<line x1="225.825" y1="847.605" x2="847.605" y2="225.825" stroke="#4F4F4F" stroke-width="2"/>
<line x1="300.669" y1="922.449" x2="922.449" y2="300.669" stroke="#4F4F4F" stroke-width="2"/>
<line x1="375.513" y1="997.293" x2="997.293" y2="375.513" stroke="#4F4F4F" stroke-width="2"/>
</svg>
