<svg width="1000" height="1000" viewBox="0 0 1000 1000" fill="none" xmlns="http://www.w3.org/2000/svg">
<mask id="path-1-inside-1" fill="white">
<path fill-rule="evenodd" clip-rule="evenodd" d="M500 926C739.692 926 934 735.273 934 500C934 264.727 739.692 74 500 74C260.308 74 66 264.727 66 500C66 735.273 260.308 926 500 926ZM500 925C734.721 925 925 734.721 925 500C925 265.279 734.721 75 500 75C265.279 75 75 265.279 75 500C75 734.721 265.279 925 500 925Z"/>
</mask>
<path fill-rule="evenodd" clip-rule="evenodd" d="M500 926C739.692 926 934 735.273 934 500C934 264.727 739.692 74 500 74C260.308 74 66 264.727 66 500C66 735.273 260.308 926 500 926ZM500 925C734.721 925 925 734.721 925 500C925 265.279 734.721 75 500 75C265.279 75 75 265.279 75 500C75 734.721 265.279 925 500 925Z" fill="#4F4F4F"/>
<path d="M933 500C933 734.704 739.157 925 500 925V927C740.226 927 935 735.843 935 500H933ZM500 75C739.157 75 933 265.296 933 500H935C935 264.157 740.226 73 500 73V75ZM67 500C67 265.296 260.843 75 500 75V73C259.774 73 65 264.157 65 500H67ZM500 925C260.843 925 67 734.704 67 500H65C65 735.843 259.774 927 500 927V925ZM924 500C924 734.169 734.169 924 500 924V926C735.273 926 926 735.273 926 500H924ZM500 76C734.169 76 924 265.831 924 500H926C926 264.727 735.273 74 500 74V76ZM76 500C76 265.831 265.831 76 500 76V74C264.727 74 74 264.727 74 500H76ZM500 924C265.831 924 76 734.169 76 500H74C74 735.273 264.727 926 500 926V924Z" fill="#4F4F4F" mask="url(#path-1-inside-1)"/>
<mask id="path-3-inside-2" fill="white">
<path fill-rule="evenodd" clip-rule="evenodd" d="M500 910C726.437 910 910 726.437 910 500C910 273.563 726.437 90 500 90C273.563 90 90 273.563 90 500C90 726.437 273.563 910 500 910ZM500 909C721.466 909 901 725.884 901 500C901 274.116 721.466 91 500 91C278.534 91 99 274.116 99 500C99 725.884 278.534 909 500 909Z"/>
</mask>
<path fill-rule="evenodd" clip-rule="evenodd" d="M500 910C726.437 910 910 726.437 910 500C910 273.563 726.437 90 500 90C273.563 90 90 273.563 90 500C90 726.437 273.563 910 500 910ZM500 909C721.466 909 901 725.884 901 500C901 274.116 721.466 91 500 91C278.534 91 99 274.116 99 500C99 725.884 278.534 909 500 909Z" fill="#828282"/>
<path d="M909 500C909 725.884 725.884 909 500 909V911C726.989 911 911 726.989 911 500H909ZM500 91C725.884 91 909 274.116 909 500H911C911 273.011 726.989 89 500 89V91ZM91 500C91 274.116 274.116 91 500 91V89C273.011 89 89 273.011 89 500H91ZM500 909C274.116 909 91 725.884 91 500H89C89 726.989 273.011 911 500 911V909ZM900 500C900 725.351 720.895 908 500 908V910C722.037 910 902 726.418 902 500H900ZM500 92C720.895 92 900 274.649 900 500H902C902 273.582 722.037 90 500 90V92ZM100 500C100 274.649 279.105 92 500 92V90C277.963 90 98 273.582 98 500H100ZM500 908C279.105 908 100 725.351 100 500H98C98 726.418 277.963 910 500 910V908Z" fill="#828282" mask="url(#path-3-inside-2)"/>
<line x1="-0.707086" y1="623.57" x2="623.57" y2="-0.707182" stroke="#4F4F4F" stroke-width="2"/>
<line x1="74.4374" y1="698.715" x2="698.715" y2="74.4374" stroke="#4F4F4F" stroke-width="2"/>
<line x1="149.582" y1="773.859" x2="773.859" y2="149.582" stroke="#4F4F4F" stroke-width="2"/>
<line x1="224.726" y1="849.004" x2="849.004" y2="224.726" stroke="#4F4F4F" stroke-width="2"/>
<line x1="299.871" y1="924.148" x2="924.148" y2="299.871" stroke="#4F4F4F" stroke-width="2"/>
<line x1="375.015" y1="999.293" x2="999.293" y2="375.015" stroke="#4F4F4F" stroke-width="2"/>
</svg>
